<svg width="32" height="32" viewBox="0 0 32 32" fill="none" xmlns="http://www.w3.org/2000/svg">
<path d="M8.66699 2.6665C7.25366 2.6665 5.94699 3.15984 4.92033 3.9865C3.53366 5.07984 2.66699 6.77317 2.66699 8.6665C2.66699 9.7865 2.98699 10.8532 3.53366 11.7598C4.25366 12.9598 5.38699 13.8932 6.74699 14.3465C7.34699 14.5598 7.98699 14.6665 8.66699 14.6665C10.187 14.6665 11.5603 14.1065 12.6137 13.1732C13.0803 12.7732 13.4803 12.2932 13.8003 11.7598C14.0803 11.2932 14.2937 10.7998 14.4403 10.2665C14.587 9.75984 14.667 9.21317 14.667 8.6665C14.667 5.3465 11.987 2.6665 8.66699 2.6665ZM10.8803 9.6665H9.69366V10.9065C9.69366 11.4532 9.24033 11.9065 8.69366 11.9065C8.14699 11.9065 7.69366 11.4665 7.69366 10.9065V9.6665H6.40033C5.85366 9.6665 5.40033 9.21317 5.40033 8.6665C5.40033 8.11984 5.85366 7.6665 6.40033 7.6665H7.69366V6.4265C7.69366 5.87984 8.14699 5.4265 8.69366 5.4265C9.24033 5.4265 9.69366 5.8665 9.69366 6.4265V7.6665H10.8803C11.427 7.6665 11.8803 8.11984 11.8803 8.6665C11.8803 9.21317 11.4403 9.6665 10.8803 9.6665Z" fill="#BCBCC6"/>
<path d="M21.3331 28.3869L8.85314 29.8535C7.98647 29.9602 7.21314 29.8269 6.5598 29.5069C5.86647 29.1602 5.3198 28.6269 4.97314 27.9202C4.65314 27.2669 4.53314 26.5069 4.62647 25.6535L5.7598 16.1202C5.86647 16.1602 5.97314 16.2002 6.0798 16.2269C6.89314 16.5202 7.7598 16.6669 8.66647 16.6669C10.6131 16.6669 12.4931 15.9602 13.9198 14.6935C14.5331 14.1602 15.0798 13.5202 15.5198 12.7869C15.8931 12.1602 16.1731 11.4935 16.3598 10.8402C16.4531 10.4935 16.5331 10.1202 16.5865 9.74688C16.5998 9.68021 16.5998 9.61354 16.5998 9.54688L16.8265 9.56021L24.9331 17.6802L25.2798 23.5735C25.6131 26.8802 24.4665 28.0269 21.3331 28.3869Z" fill="#BCBCC6"/>
<path d="M29.3331 13.7067L26.5731 15.4534C26.0531 15.7734 25.3865 15.7067 24.9598 15.2667L19.0531 9.36003C18.6265 8.93337 18.5465 8.2667 18.8665 7.7467L20.6131 4.9867C21.6798 3.3067 23.8131 3.2267 25.3998 4.7867L29.5465 8.93337C30.9998 10.4134 30.9065 12.7067 29.3331 13.7067Z" fill="#BCBCC6"/>
</svg>
