<svg width="32" height="32" viewBox="0 0 32 32" fill="none" xmlns="http://www.w3.org/2000/svg">
<path d="M27.3998 12.5867H25.9332C25.7332 12.5867 25.5332 12.6267 25.3465 12.6801L18.6932 6.02672C19.3332 5.20005 19.2798 4.01339 18.5198 3.26672L17.4798 2.22672C16.6932 1.44005 15.3065 1.44005 14.5065 2.22672L13.4665 3.26672C12.7198 4.01339 12.6665 5.20005 13.3065 6.02672L6.65316 12.6801C6.4665 12.6267 6.2665 12.5867 6.0665 12.5867H4.59983C3.43983 12.5867 2.49316 13.5334 2.49316 14.6934V16.1601C2.49316 17.3201 3.43983 18.2667 4.59983 18.2667H6.0665C7.2265 18.2667 8.17316 17.3201 8.17316 16.1601V14.6934C8.17316 14.4934 8.13316 14.2934 8.07983 14.1067L14.7332 7.45339C15.0932 7.73339 15.5465 7.88005 15.9998 7.88005C16.4532 7.88005 16.9065 7.72005 17.2798 7.44005L23.9332 14.0934C23.8798 14.2801 23.8398 14.4801 23.8398 14.6801V16.1467C23.8398 17.3067 24.7865 18.2534 25.9465 18.2534H27.4132C28.5732 18.2534 29.5198 17.3067 29.5198 16.1467V14.6801C29.4932 13.5201 28.5598 12.5867 27.3998 12.5867Z" fill="#BCBCC6"/>
<path d="M20.9997 22.0668L18.8131 24.0001H13.1331L10.9464 22.0668C9.67974 21.0268 9.67974 20.2268 10.6397 19.0001L14.4931 14.1201C14.7597 13.7868 15.0664 13.5601 15.4131 13.4401C15.7731 13.3201 16.1597 13.3201 16.5331 13.4401C16.8664 13.5601 17.1731 13.7868 17.4531 14.1201L21.3064 19.0001C22.2664 20.2134 22.2264 20.9734 20.9997 22.0668Z" fill="#BCBCC6"/>
<path d="M17.7195 29.3333H14.2662C13.0395 29.3333 12.1195 28.3333 12.3595 27.2666L12.7729 25.4133C12.8529 25.04 13.1862 24.7866 13.5595 24.7866H18.4262C18.7995 24.7866 19.1195 25.04 19.2129 25.4133L19.6262 27.2666C19.8929 28.4 19.0262 29.3333 17.7195 29.3333Z" fill="#BCBCC6"/>
</svg>
